<?xml version="1.0" encoding="UTF-8"?>
<svg width="16px" height="16px" viewBox="0 0 18 18" version="1.1" xmlns="http://www.w3.org/2000/svg" xmlns:xlink="http://www.w3.org/1999/xlink">
    <g id="clean" fill="none" fill-rule="evenodd">
        <g transform="translate(3.000000, 2.000000)">
            <path d="M0,3 L12,3" stroke-linecap="round" stroke-linejoin="round"></path>
            <path
                d="M2,4 L2.48764038,13.7528076 C2.49446641,13.8893282 2.62149811,14 2.74913371,14 L9.25086629,14 C9.38845904,14 9.50561523,13.8876953 9.51235962,13.7528076 L10,4"
                stroke-linecap="round" stroke-linejoin="round"></path>
            <path d="M6,3 L6,14" stroke-linecap="square"></path>
            <polyline stroke-linecap="round" stroke-linejoin="round" points="3.5 2.5 4.5 4.4408921e-14 7.5 4.4408921e-14 8.5 2.5"></polyline>
        </g>
        <path fill="#FFFFFF" d="M5.62296704,4 L3,4 C2.44771525,4 2,4.44771525 2,5 C2,5.55228475 2.44771525,6 3,6 L3.99997755,6 C3.99999108,6.01656372 4.00041143,6.03321294 4.00124766,6.04993762 L4.48888804,15.8027452 C4.52251805,16.4753454 5.09212362,17 5.74913371,17 L12.2508663,17 C12.9203449,17 13.4777078,16.4708291 13.511112,15.8027452 L13.9987523,6.04993762 C13.9995886,6.03321294 14.0000089,6.01656372 14.0000225,6 L15,6 C15.5522847,6 16,5.55228475 16,5 C16,4.44771525 15.5522847,4 15,4 L12.377033,4 L11.4284767,1.62860932 C11.2766133,1.24895094 10.9089046,1 10.5,1 L7.5,1 C7.09109541,1 6.72338666,1.24895094 6.57152331,1.62860932 L5.62296704,4 Z M7.77703296,4 L10.2222938,4 L9.82223657,3.00178511 L8.17458307,3.00612473 L7.77703296,4 Z M8,6 L6.00124922,6 L6.45156729,15.0063615 L8,15.0046629 L8,6 Z M10,6 L11.9988268,6 L11.562488,15.0007551 L10,15.0024691 L10,6 Z"></path>
    </g>
</svg>
