<?xml version="1.0" encoding="UTF-8"?>
<svg width="64" height="64" version="1.0" xmlns="http://www.w3.org/2000/svg" xmlns:svg="http://www.w3.org/2000/svg">
    <g id="convert" fill="#FFFFFF">
        <path d="M 37.951441,44.108545 L 37.694359,45.57391 C 37.07733,45.625326 36.53746,45.651034 36.074745,45.651035 C 35.406301,45.651034 34.60078,45.599618 33.658177,45.496786 C 32.047104,45.325398 31.027348,45.239704 30.598905,45.239704 C 29.879051,45.239704 28.773601,45.351106 27.282551,45.57391 C 27.81383,44.237087 28.259438,42.831708 28.619376,41.357771 C 28.876433,40.31231 29.150654,38.512741 29.442037,35.959056 C 27.436778,35.941926 24.326092,35.984773 20.109973,36.087597 C 15.756712,42.737445 12.560333,46.910733 10.520827,48.607474 C 8.4984469,50.321347 6.5703363,51.178285 4.7364891,51.178291 C 3.7767183,51.178285 3.0654597,50.989758 2.6027112,50.612711 C 2.1228279,50.252792 1.8828852,49.781476 1.8828826,49.198762 C 1.8828852,48.75315 2.0199953,48.384667 2.2942132,48.093311 C 2.5684357,47.801949 2.9112109,47.656269 3.3225399,47.656272 C 3.5624838,47.656269 3.8881202,47.699116 4.2994502,47.784813 C 5.3277761,48.024753 6.0133266,48.144724 6.3561036,48.144727 C 7.5043988,48.144724 8.7726671,47.493451 10.160912,46.190906 C 12.423223,44.065699 15.765281,39.609621 20.187097,32.82266 C 25.1916,25.144507 29.244917,19.557271 32.34706,16.060935 C 28.113759,16.438017 25.474389,16.797931 24.428945,17.140678 C 22.989269,17.603452 21.909527,18.289003 21.189716,19.197331 C 20.469871,20.105711 20.109957,21.031205 20.109973,21.973813 C 20.109957,22.282334 20.221359,22.719372 20.444179,23.28493 C 20.684106,23.919086 20.804077,24.381832 20.804093,24.673171 C 20.804077,25.050244 20.658398,25.38445 20.367055,25.675789 C 20.07568,25.967168 19.724335,26.112847 19.31302,26.112828 C 18.730287,26.112847 18.258971,25.898613 17.899071,25.470124 C 17.556282,25.024536 17.384894,24.364693 17.384907,23.490595 C 17.384894,22.256626 17.701961,21.065482 18.336109,19.91716 C 18.987368,18.751749 19.912862,17.783409 21.112591,17.012137 C 22.312288,16.223782 23.81193,15.623925 25.611521,15.212565 C 26.536993,14.989791 28.165175,14.792696 30.496072,14.621277 C 32.51842,14.44992 33.786688,14.287102 34.300881,14.132822 C 35.106373,13.910049 35.877617,13.473011 36.614616,12.821706 C 36.100421,14.929806 35.731938,16.772222 35.509165,18.348962 L 33.503928,33.208282 L 32.34706,43.851463 C 33.615301,44.177101 34.755028,44.339919 35.766247,44.339918 C 36.434627,44.339919 37.163024,44.262795 37.951441,44.108545 M 29.673411,34.056652 C 30.496046,27.098326 31.318707,22.016683 32.141395,18.811709 C 29.964745,21.691047 28.619352,23.507755 28.105213,24.26184 L 21.498214,34.056652 C 22.920714,34.108079 24.951657,34.133787 27.591049,34.133776 C 28.242299,34.133787 28.936419,34.108079 29.673411,34.056652 M 59.263509,23.182097 L 60.960248,22.822183 L 59.032136,29.326349 C 58.26087,31.914318 57.532473,34.896462 56.846942,38.272791 C 56.469869,40.106645 56.281343,41.28922 56.281362,41.820518 C 56.281343,42.351823 56.495577,42.617474 56.924066,42.617471 C 57.198267,42.617474 57.635305,42.437517 58.235183,42.0776 C 59.297765,41.443469 60.317521,40.655086 61.294455,39.712448 L 62.117116,40.715067 C 60.163272,42.497502 58.912143,43.577244 58.363724,43.954296 C 57.266822,44.708403 56.221357,45.265412 55.227327,45.625327 C 54.576036,45.865269 53.941902,45.98524 53.324923,45.985241 C 52.879299,45.98524 52.545093,45.882408 52.322304,45.676743 C 52.099485,45.471077 51.988083,45.171149 51.988098,44.776957 C 51.988083,44.519876 52.056638,44.168532 52.193763,43.722922 L 53.22209,40.226612 C 51.748141,41.991909 49.991418,43.508689 47.951916,44.776957 C 46.700776,45.565341 45.552479,45.959532 44.507022,45.959533 C 43.512966,45.959532 42.750291,45.608187 42.218995,44.905498 C 41.499162,43.962866 41.139248,42.728876 41.139252,41.203522 C 41.139248,39.386817 41.619133,37.364444 42.578909,35.136395 C 43.555813,32.908366 44.858359,30.885992 46.48655,29.069267 C 48.114723,27.252575 49.8286,25.915751 51.628184,25.058793 C 53.016409,24.40754 54.79884,24.081904 56.975482,24.081883 C 57.523903,24.081904 58.080913,24.116181 58.646513,24.184715 L 59.263509,23.182097 M 56.075697,27.115446 C 55.150185,26.926938 54.370371,26.832675 53.736253,26.832657 C 52.193749,26.832675 50.848356,27.261144 49.700071,28.118065 C 48.551762,28.957881 47.480589,30.483231 46.48655,32.694119 C 45.509632,34.887893 45.021177,37.081654 45.021185,39.275409 C 45.021177,40.440851 45.218273,41.28065 45.612473,41.79481 C 46.006656,42.308976 46.520819,42.566057 47.154963,42.566055 C 48.337527,42.566057 49.605796,41.931923 50.959771,40.66365 C 52.31372,39.378248 53.307768,37.535831 53.941919,35.136395 L 56.075697,27.115446"/>
    </g>
</svg>
