<?xml version="1.0" encoding="UTF-8"?>
<svg width="16px" height="16px" viewBox="0 0 18 18" version="1.1" xmlns="http://www.w3.org/2000/svg" xmlns:xlink="http://www.w3.org/1999/xlink">
    <g id="export" fill="#FFFFFF">
        <path d="M8,5.41421356 L8,12 C8,12.5522847 8.44771525,13 9,13 C9.55228475,13 10,12.5522847 10,12 L10,5.41421356 L12.2928932,7.70710678 C12.6834175,8.09763107 13.3165825,8.09763107 13.7071068,7.70710678 C14.0976311,7.31658249 14.0976311,6.68341751 13.7071068,6.29289322 L9.87898178,2.46476822 C9.40193023,1.98771667 8.60844708,1.97733936 8.12101822,2.46476822 L4.29289322,6.29289322 C3.90236893,6.68341751 3.90236893,7.31658249 4.29289322,7.70710678 C4.68341751,8.09763107 5.31658249,8.09763107 5.70710678,7.70710678 L8,5.41421356 Z M14,16 C14.5522847,16 15,15.5522847 15,15 C15,14.4477153 14.5522847,14 14,14 L4,14 C3.44771525,14 3,14.4477153 3,15 C3,15.5522847 3.44771525,16 4,16 L14,16 Z"></path>
    </g>
</svg>
